<mxfile host="app.diagrams.net" modified="2024-07-14T07:21:59.688Z" agent="Mozilla/5.0 (Windows NT 10.0; Win64; x64; rv:128.0) Gecko/20100101 Firefox/128.0" etag="GIEn7nWqs8jT36pPRx3u" version="24.6.5" type="github">
  <diagram name="Page-1" id="pI-C5jLEUPl5uABciL2J">
    <mxGraphModel dx="1434" dy="866" grid="1" gridSize="10" guides="1" tooltips="1" connect="1" arrows="1" fold="1" page="1" pageScale="1" pageWidth="850" pageHeight="1100" math="0" shadow="0">
      <root>
        <mxCell id="0" />
        <mxCell id="1" parent="0" />
        <mxCell id="AdfwKSu6tByvRweBy8J0-3" style="edgeStyle=orthogonalEdgeStyle;rounded=0;orthogonalLoop=1;jettySize=auto;html=1;exitX=1;exitY=0.5;exitDx=0;exitDy=0;endArrow=none;endFill=0;" edge="1" parent="1" source="AdfwKSu6tByvRweBy8J0-1" target="AdfwKSu6tByvRweBy8J0-2">
          <mxGeometry relative="1" as="geometry" />
        </mxCell>
        <mxCell id="AdfwKSu6tByvRweBy8J0-1" value="Jan Thoemel&lt;br&gt;Director" style="rounded=1;whiteSpace=wrap;html=1;" vertex="1" parent="1">
          <mxGeometry x="330" y="140" width="120" height="60" as="geometry" />
        </mxCell>
        <mxCell id="AdfwKSu6tByvRweBy8J0-2" value="Marcelle Fankam&lt;br&gt;CFO" style="rounded=1;whiteSpace=wrap;html=1;" vertex="1" parent="1">
          <mxGeometry x="500" y="140" width="120" height="60" as="geometry" />
        </mxCell>
      </root>
    </mxGraphModel>
  </diagram>
</mxfile>
